<mxfile host="app.diagrams.net" agent="Mozilla/5.0 (Windows NT 10.0; Win64; x64) AppleWebKit/537.36 (KHTML, like Gecko) Chrome/128.0.0.0 Safari/537.36 Edg/128.0.0.0" version="24.7.13">
  <diagram id="C5RBs43oDa-KdzZeNtuy" name="Page-1">
    <mxGraphModel grid="1" page="1" gridSize="10" guides="1" tooltips="1" connect="1" arrows="1" fold="1" pageScale="1" pageWidth="827" pageHeight="1169" math="0" shadow="0">
      <root>
        <mxCell id="WIyWlLk6GJQsqaUBKTNV-0" />
        <mxCell id="WIyWlLk6GJQsqaUBKTNV-1" parent="WIyWlLk6GJQsqaUBKTNV-0" />
        <mxCell id="r5yFn1_2RrsHN5UK6-od-45" value="" style="rounded=0;whiteSpace=wrap;html=1;" vertex="1" parent="WIyWlLk6GJQsqaUBKTNV-1">
          <mxGeometry x="-1640" y="20" width="860" height="480" as="geometry" />
        </mxCell>
        <mxCell id="r5yFn1_2RrsHN5UK6-od-62" value="" style="rounded=0;whiteSpace=wrap;html=1;" vertex="1" parent="WIyWlLk6GJQsqaUBKTNV-1">
          <mxGeometry x="-1640" y="500" width="860" height="480" as="geometry" />
        </mxCell>
        <mxCell id="r5yFn1_2RrsHN5UK6-od-66" value="&lt;font style=&quot;font-size: 19px;&quot;&gt;A&lt;/font&gt;" style="text;html=1;align=left;verticalAlign=middle;whiteSpace=wrap;rounded=0;fontSize=19;" vertex="1" parent="WIyWlLk6GJQsqaUBKTNV-1">
          <mxGeometry x="-1627" y="30" width="60" height="30" as="geometry" />
        </mxCell>
        <mxCell id="r5yFn1_2RrsHN5UK6-od-68" value="&lt;font style=&quot;font-size: 19px;&quot;&gt;B&lt;/font&gt;" style="text;html=1;align=left;verticalAlign=middle;whiteSpace=wrap;rounded=0;fontSize=19;" vertex="1" parent="WIyWlLk6GJQsqaUBKTNV-1">
          <mxGeometry x="-1627" y="510" width="60" height="30" as="geometry" />
        </mxCell>
        <mxCell id="r5yFn1_2RrsHN5UK6-od-72" value="" style="group" connectable="0" vertex="1" parent="WIyWlLk6GJQsqaUBKTNV-1">
          <mxGeometry x="-1605" y="560" width="790" height="360" as="geometry" />
        </mxCell>
        <mxCell id="r5yFn1_2RrsHN5UK6-od-30" style="edgeStyle=orthogonalEdgeStyle;rounded=0;orthogonalLoop=1;jettySize=auto;html=1;" edge="1" parent="r5yFn1_2RrsHN5UK6-od-72" source="r5yFn1_2RrsHN5UK6-od-32" target="r5yFn1_2RrsHN5UK6-od-36">
          <mxGeometry relative="1" as="geometry" />
        </mxCell>
        <mxCell id="r5yFn1_2RrsHN5UK6-od-31" style="edgeStyle=orthogonalEdgeStyle;rounded=0;orthogonalLoop=1;jettySize=auto;html=1;exitX=0.5;exitY=1;exitDx=0;exitDy=0;" edge="1" parent="r5yFn1_2RrsHN5UK6-od-72" source="r5yFn1_2RrsHN5UK6-od-32" target="r5yFn1_2RrsHN5UK6-od-40">
          <mxGeometry relative="1" as="geometry" />
        </mxCell>
        <mxCell id="r5yFn1_2RrsHN5UK6-od-32" value="617 Admissions to &lt;br&gt;intenisive care unit" style="rounded=0;whiteSpace=wrap;html=1;" vertex="1" parent="r5yFn1_2RrsHN5UK6-od-72">
          <mxGeometry x="270" width="240" height="60" as="geometry" />
        </mxCell>
        <mxCell id="r5yFn1_2RrsHN5UK6-od-33" style="edgeStyle=orthogonalEdgeStyle;rounded=0;orthogonalLoop=1;jettySize=auto;html=1;entryX=0.5;entryY=0;entryDx=0;entryDy=0;" edge="1" parent="r5yFn1_2RrsHN5UK6-od-72" source="r5yFn1_2RrsHN5UK6-od-36" target="r5yFn1_2RrsHN5UK6-od-39">
          <mxGeometry relative="1" as="geometry" />
        </mxCell>
        <mxCell id="r5yFn1_2RrsHN5UK6-od-34" style="edgeStyle=orthogonalEdgeStyle;rounded=0;orthogonalLoop=1;jettySize=auto;html=1;exitX=0.5;exitY=1;exitDx=0;exitDy=0;" edge="1" parent="r5yFn1_2RrsHN5UK6-od-72" source="r5yFn1_2RrsHN5UK6-od-36" target="r5yFn1_2RrsHN5UK6-od-41">
          <mxGeometry relative="1" as="geometry" />
        </mxCell>
        <mxCell id="r5yFn1_2RrsHN5UK6-od-35" style="edgeStyle=orthogonalEdgeStyle;rounded=0;orthogonalLoop=1;jettySize=auto;html=1;" edge="1" parent="r5yFn1_2RrsHN5UK6-od-72" target="r5yFn1_2RrsHN5UK6-od-43">
          <mxGeometry relative="1" as="geometry">
            <mxPoint x="390" y="180" as="sourcePoint" />
          </mxGeometry>
        </mxCell>
        <mxCell id="r5yFn1_2RrsHN5UK6-od-36" value="542 Survived&amp;nbsp;&lt;span style=&quot;color: rgba(0, 0, 0, 0); font-family: monospace; font-size: 0px; text-align: start; text-wrap: nowrap;&quot;&gt;%3CmxGraphModel%3E%3Croot%3E%3CmxCell%20id%3D%220%22%2F%3E%3CmxCell%20id%3D%221%22%20parent%3D%220%22%2F%3E%3CmxCell%20id%3D%222%22%20value%3D%22277%20patients%20admitted%20to%20the%20ICU%22%20style%3D%22rounded%3D0%3BwhiteSpace%3Dwrap%3Bhtml%3D1%3B%22%20vertex%3D%221%22%20parent%3D%221%22%3E%3CmxGeometry%20x%3D%22350%22%20y%3D%22540%22%20width%3D%22120%22%20height%3D%2260%22%20as%3D%22geometry%22%2F%3E%3C%2FmxCell%3E%3C%2Froot%3E%3C%2FmxGraphModel%3E&lt;/span&gt;to discharge" style="rounded=0;whiteSpace=wrap;html=1;" vertex="1" parent="r5yFn1_2RrsHN5UK6-od-72">
          <mxGeometry x="270" y="100" width="240" height="60" as="geometry" />
        </mxCell>
        <mxCell id="r5yFn1_2RrsHN5UK6-od-37" style="edgeStyle=orthogonalEdgeStyle;rounded=0;orthogonalLoop=1;jettySize=auto;html=1;entryX=0.5;entryY=0;entryDx=0;entryDy=0;" edge="1" parent="r5yFn1_2RrsHN5UK6-od-72" source="r5yFn1_2RrsHN5UK6-od-39" target="r5yFn1_2RrsHN5UK6-od-42">
          <mxGeometry relative="1" as="geometry">
            <Array as="points">
              <mxPoint x="390" y="280" />
              <mxPoint x="390" y="280" />
            </Array>
          </mxGeometry>
        </mxCell>
        <mxCell id="r5yFn1_2RrsHN5UK6-od-38" style="edgeStyle=orthogonalEdgeStyle;rounded=0;orthogonalLoop=1;jettySize=auto;html=1;exitX=0.5;exitY=1;exitDx=0;exitDy=0;entryX=0;entryY=0.5;entryDx=0;entryDy=0;" edge="1" parent="r5yFn1_2RrsHN5UK6-od-72" source="r5yFn1_2RrsHN5UK6-od-39" target="r5yFn1_2RrsHN5UK6-od-44">
          <mxGeometry relative="1" as="geometry" />
        </mxCell>
        <mxCell id="r5yFn1_2RrsHN5UK6-od-39" value="489 Discharged &lt;br&gt;to nursing ward" style="rounded=0;whiteSpace=wrap;html=1;" vertex="1" parent="r5yFn1_2RrsHN5UK6-od-72">
          <mxGeometry x="270" y="200" width="240" height="60" as="geometry" />
        </mxCell>
        <mxCell id="r5yFn1_2RrsHN5UK6-od-40" value="75 Died on intensive care unit" style="rounded=0;whiteSpace=wrap;html=1;" vertex="1" parent="r5yFn1_2RrsHN5UK6-od-72">
          <mxGeometry x="550" y="50" width="240" height="60" as="geometry" />
        </mxCell>
        <mxCell id="r5yFn1_2RrsHN5UK6-od-41" value="24 Discharged &lt;br&gt;to High Dependency unit" style="rounded=0;whiteSpace=wrap;html=1;" vertex="1" parent="r5yFn1_2RrsHN5UK6-od-72">
          <mxGeometry y="200" width="240" height="60" as="geometry" />
        </mxCell>
        <mxCell id="r5yFn1_2RrsHN5UK6-od-42" value="245 Included &lt;br&gt;in analysis" style="rounded=0;whiteSpace=wrap;html=1;" vertex="1" parent="r5yFn1_2RrsHN5UK6-od-72">
          <mxGeometry x="270" y="300" width="240" height="60" as="geometry" />
        </mxCell>
        <mxCell id="r5yFn1_2RrsHN5UK6-od-43" value="29 Had length of stay less than 12 hours" style="rounded=0;whiteSpace=wrap;html=1;" vertex="1" parent="r5yFn1_2RrsHN5UK6-od-72">
          <mxGeometry x="550" y="150" width="240" height="60" as="geometry" />
        </mxCell>
        <mxCell id="r5yFn1_2RrsHN5UK6-od-44" value="244 Had missing physician prediction" style="rounded=0;whiteSpace=wrap;html=1;" vertex="1" parent="r5yFn1_2RrsHN5UK6-od-72">
          <mxGeometry x="550" y="250" width="240" height="60" as="geometry" />
        </mxCell>
        <mxCell id="r5yFn1_2RrsHN5UK6-od-74" value="" style="group" connectable="0" vertex="1" parent="WIyWlLk6GJQsqaUBKTNV-1">
          <mxGeometry x="-1605" y="80" width="790" height="360" as="geometry" />
        </mxCell>
        <mxCell id="r5yFn1_2RrsHN5UK6-od-21" style="edgeStyle=orthogonalEdgeStyle;rounded=0;orthogonalLoop=1;jettySize=auto;html=1;" edge="1" parent="r5yFn1_2RrsHN5UK6-od-74" source="OxOeGjidYFqf3zBfezSS-0" target="OxOeGjidYFqf3zBfezSS-2">
          <mxGeometry relative="1" as="geometry" />
        </mxCell>
        <mxCell id="r5yFn1_2RrsHN5UK6-od-29" style="edgeStyle=orthogonalEdgeStyle;rounded=0;orthogonalLoop=1;jettySize=auto;html=1;exitX=0.5;exitY=1;exitDx=0;exitDy=0;" edge="1" parent="r5yFn1_2RrsHN5UK6-od-74" source="OxOeGjidYFqf3zBfezSS-0" target="OxOeGjidYFqf3zBfezSS-4">
          <mxGeometry relative="1" as="geometry" />
        </mxCell>
        <mxCell id="OxOeGjidYFqf3zBfezSS-0" value="274 Admissions to &lt;br&gt;intensive care unit" style="rounded=0;whiteSpace=wrap;html=1;" vertex="1" parent="r5yFn1_2RrsHN5UK6-od-74">
          <mxGeometry x="270" width="240" height="60" as="geometry" />
        </mxCell>
        <mxCell id="r5yFn1_2RrsHN5UK6-od-22" style="edgeStyle=orthogonalEdgeStyle;rounded=0;orthogonalLoop=1;jettySize=auto;html=1;entryX=0.5;entryY=0;entryDx=0;entryDy=0;" edge="1" parent="r5yFn1_2RrsHN5UK6-od-74" source="OxOeGjidYFqf3zBfezSS-2" target="OxOeGjidYFqf3zBfezSS-3">
          <mxGeometry relative="1" as="geometry" />
        </mxCell>
        <mxCell id="r5yFn1_2RrsHN5UK6-od-25" style="edgeStyle=orthogonalEdgeStyle;rounded=0;orthogonalLoop=1;jettySize=auto;html=1;exitX=0.5;exitY=1;exitDx=0;exitDy=0;" edge="1" parent="r5yFn1_2RrsHN5UK6-od-74" source="OxOeGjidYFqf3zBfezSS-2" target="OxOeGjidYFqf3zBfezSS-5">
          <mxGeometry relative="1" as="geometry" />
        </mxCell>
        <mxCell id="r5yFn1_2RrsHN5UK6-od-27" style="edgeStyle=orthogonalEdgeStyle;rounded=0;orthogonalLoop=1;jettySize=auto;html=1;" edge="1" parent="r5yFn1_2RrsHN5UK6-od-74" target="r5yFn1_2RrsHN5UK6-od-17">
          <mxGeometry relative="1" as="geometry">
            <mxPoint x="390" y="180" as="sourcePoint" />
          </mxGeometry>
        </mxCell>
        <mxCell id="OxOeGjidYFqf3zBfezSS-2" value="225 Survived&amp;nbsp;&lt;span style=&quot;color: rgba(0, 0, 0, 0); font-family: monospace; font-size: 0px; text-align: start; text-wrap: nowrap;&quot;&gt;%3CmxGraphModel%3E%3Croot%3E%3CmxCell%20id%3D%220%22%2F%3E%3CmxCell%20id%3D%221%22%20parent%3D%220%22%2F%3E%3CmxCell%20id%3D%222%22%20value%3D%22277%20patients%20admitted%20to%20the%20ICU%22%20style%3D%22rounded%3D0%3BwhiteSpace%3Dwrap%3Bhtml%3D1%3B%22%20vertex%3D%221%22%20parent%3D%221%22%3E%3CmxGeometry%20x%3D%22350%22%20y%3D%22540%22%20width%3D%22120%22%20height%3D%2260%22%20as%3D%22geometry%22%2F%3E%3C%2FmxCell%3E%3C%2Froot%3E%3C%2FmxGraphModel%3E&lt;/span&gt;to discharge" style="rounded=0;whiteSpace=wrap;html=1;" vertex="1" parent="r5yFn1_2RrsHN5UK6-od-74">
          <mxGeometry x="270" y="100" width="240" height="60" as="geometry" />
        </mxCell>
        <mxCell id="r5yFn1_2RrsHN5UK6-od-23" style="edgeStyle=orthogonalEdgeStyle;rounded=0;orthogonalLoop=1;jettySize=auto;html=1;entryX=0.5;entryY=0;entryDx=0;entryDy=0;" edge="1" parent="r5yFn1_2RrsHN5UK6-od-74" source="OxOeGjidYFqf3zBfezSS-3" target="r5yFn1_2RrsHN5UK6-od-3">
          <mxGeometry relative="1" as="geometry">
            <Array as="points">
              <mxPoint x="390" y="280" />
              <mxPoint x="390" y="280" />
            </Array>
          </mxGeometry>
        </mxCell>
        <mxCell id="r5yFn1_2RrsHN5UK6-od-28" style="edgeStyle=orthogonalEdgeStyle;rounded=0;orthogonalLoop=1;jettySize=auto;html=1;exitX=0.5;exitY=1;exitDx=0;exitDy=0;entryX=0;entryY=0.5;entryDx=0;entryDy=0;" edge="1" parent="r5yFn1_2RrsHN5UK6-od-74" source="OxOeGjidYFqf3zBfezSS-3" target="r5yFn1_2RrsHN5UK6-od-18">
          <mxGeometry relative="1" as="geometry" />
        </mxCell>
        <mxCell id="OxOeGjidYFqf3zBfezSS-3" value="174 Discharged &lt;br&gt;to nursing ward" style="rounded=0;whiteSpace=wrap;html=1;" vertex="1" parent="r5yFn1_2RrsHN5UK6-od-74">
          <mxGeometry x="270" y="200" width="240" height="60" as="geometry" />
        </mxCell>
        <mxCell id="OxOeGjidYFqf3zBfezSS-4" value="49 Died on intensive care unit" style="rounded=0;whiteSpace=wrap;html=1;" vertex="1" parent="r5yFn1_2RrsHN5UK6-od-74">
          <mxGeometry x="550" y="50" width="240" height="60" as="geometry" />
        </mxCell>
        <mxCell id="OxOeGjidYFqf3zBfezSS-5" value="30 Discharged &lt;br&gt;to High Dependency unit" style="rounded=0;whiteSpace=wrap;html=1;" vertex="1" parent="r5yFn1_2RrsHN5UK6-od-74">
          <mxGeometry y="200" width="240" height="60" as="geometry" />
        </mxCell>
        <mxCell id="r5yFn1_2RrsHN5UK6-od-3" value="151 Included &lt;br&gt;in analysis" style="rounded=0;whiteSpace=wrap;html=1;" vertex="1" parent="r5yFn1_2RrsHN5UK6-od-74">
          <mxGeometry x="270" y="300" width="240" height="60" as="geometry" />
        </mxCell>
        <mxCell id="r5yFn1_2RrsHN5UK6-od-17" value="21 Had length of stay less than 12 hours" style="rounded=0;whiteSpace=wrap;html=1;" vertex="1" parent="r5yFn1_2RrsHN5UK6-od-74">
          <mxGeometry x="550" y="150" width="240" height="60" as="geometry" />
        </mxCell>
        <mxCell id="r5yFn1_2RrsHN5UK6-od-18" value="23 Had missing physician prediction" style="rounded=0;whiteSpace=wrap;html=1;" vertex="1" parent="r5yFn1_2RrsHN5UK6-od-74">
          <mxGeometry x="550" y="250" width="240" height="60" as="geometry" />
        </mxCell>
      </root>
    </mxGraphModel>
  </diagram>
</mxfile>
